<svg id="logo" xmlns="http://www.w3.org/2000/svg" width="184.848" height="41.65" viewBox="0 0 184.848 41.65">
  <rect id="Rectangle_3" data-name="Rectangle 3" width="6.653" height="13.855" transform="translate(94.409 20.804)" fill="#86bc26"/>
  <path id="Tracé_1" data-name="Tracé 1" d="M200.982,211.249h-4.6a9.64,9.64,0,0,0-9.631,9.631v17H193.4v-17a2.965,2.965,0,0,1,2.956-2.957h4.6a2.953,2.953,0,0,1,2.957,2.957v17h6.653v-17a9.578,9.578,0,0,0-9.589-9.631" transform="translate(-57.594 -203.35)" fill="#86bc26"/>
  <rect id="Rectangle_4" data-name="Rectangle 4" width="6.653" height="26.866" transform="translate(117.705 7.899)" fill="#86bc26"/>
  <rect id="Rectangle_5" data-name="Rectangle 5" width="6.674" height="26.591" transform="translate(71.134 7.899)" fill="#86bc26"/>
  <rect id="Rectangle_6" data-name="Rectangle 6" width="6.653" height="26.316" transform="translate(31.807 7.899)" fill="#86bc26"/>
  <path id="Tracé_2" data-name="Tracé 2" d="M161.972,211.249H148.687a9.641,9.641,0,0,0-9.631,9.631v17h6.674v-17a2.966,2.966,0,0,1,2.957-2.957h13.285a2.966,2.966,0,0,1,2.957,2.957v17h6.653v-17a9.6,9.6,0,0,0-9.61-9.631" transform="translate(-57.594 -203.35)" fill="#86bc26"/>
  <path id="Tracé_3" data-name="Tracé 3" d="M124.631,211.249h-7.9l-4.33,6.8-4.351-6.8h-7.9l8.3,13.01-8.7,13.623h7.9l4.752-7.434,4.731,7.434h7.9l-8.681-13.623Z" transform="translate(-57.594 -203.35)" fill="#86bc26"/>
  <path id="Tracé_4" data-name="Tracé 4" d="M76.1,211.249h-18.5v9.779h7.012V217.9H76.074a2.966,2.966,0,0,1,2.957,2.957v.148h6.653v-.127a9.591,9.591,0,0,0-9.589-9.631" transform="translate(-57.594 -203.35)" fill="#86bc26"/>
  <path id="Tracé_5" data-name="Tracé 5" d="M79.052,227.47a2.966,2.966,0,0,1-2.957,2.957H64.606v-3.021H57.594v13.159L64.247,245v-7.92H76.074a9.632,9.632,0,0,0,9.61-9.61v-.064H79.031v.064Z" transform="translate(-57.594 -203.35)" fill="#86bc26"/>
  <path id="Tracé_6" data-name="Tracé 6" d="M235.409,231.229H225.038a2.966,2.966,0,0,1-2.957-2.957v-.844h-6.653v.844a9.618,9.618,0,0,0,9.61,9.61h17.383V227.428h-7.033v3.8Z" transform="translate(-57.594 -203.35)" fill="#86bc26"/>
  <path id="Tracé_7" data-name="Tracé 7" d="M235.768,203.35v7.9h-10.73a9.623,9.623,0,0,0-9.61,9.631v.148h6.653v-.148a2.966,2.966,0,0,1,2.957-2.957h10.371v3.1h7.033V207.785Z" transform="translate(-57.594 -203.35)" fill="#86bc26"/>
</svg>
